# xmcd CD database file
#
# Track frame offsets:
#	150
#	17230
#	43522
#	76155
#	100120
#	119050
#	139757
#	159952
#	189737
#	213152
#	245867
#
# Disc length: 3707 seconds
#
# Revision: 0
# Processed by: cddbd v1.5PL3 Copyright (c) Steve Scherf et al.
# Submitted via: CDex 1.50beta10
#
DISCID=930e790b
DTITLE=Various Artist - Jazz Live From South Africa (Jazz and Tzaz 88)
DYEAR=2000
DGENRE=Jazz
TTITLE0=RATAU MIKE MAKHALEMELE - Emakhaya
TTITLE1=RATAU MIKE MAKHALEMELE - Amabutho
TTITLE2=THE JAZZ HOUNDS - Deja vu
TTITLE3=STIMELA - Ukelele
TTITLE4=RATAU MIKE MAKHALEMELE - Meadowlands
TTITLE5=MAGIC CACTUS - Isikhathi
TTITLE6=GLEN NXUMALO and FRIENDS -  A Hi Khenseni
TTITLE7=THE JAZZ HOUNDS - Mustapharout
TTITLE8=RATAU MIKE MAKHALEMELE - Umfana
TTITLE9=THE JAZZ HOUNDS -  Jabba
TTITLE10=MAGIC CACTUS - The Future (Is A Southern Spice)
EXTD=YEAR: 2000
EXTT0=
EXTT1=
EXTT2=
EXTT3=
EXTT4=
EXTT5=
EXTT6=
EXTT7=
EXTT8=
EXTT9=
EXTT10=
PLAYORDER=
